<?xml version="1.0" encoding="UTF-8"?>
<svg version="1.1" xmlns="http://www.w3.org/2000/svg" width="413" height="413">
<path d="M0 0 C1.79630859 0.49306641 1.79630859 0.49306641 3.62890625 0.99609375 C33.25221711 9.92324374 56.33210878 30.37067088 71.1875 57.1875 C77.59527737 69.26812384 81.67908662 82.38957606 83 96 C83.13277344 97.13179688 83.26554688 98.26359375 83.40234375 99.4296875 C87.07821387 137.84046521 70.81495141 180.25057849 47 210 C44.71909206 212.67213163 42.39771761 215.27979801 39.99609375 217.84375 C38.32130296 219.65291735 36.82130262 221.49302489 35.3125 223.4375 C24.06170106 236.65718875 7.38448188 246.01341856 -9 251 C-10.32 251 -11.64 251 -13 251 C-11.91660517 252.52446071 -10.83287273 254.04868246 -9.74755859 255.57177734 C-8.82900451 256.86219716 -7.91267758 258.15420509 -6.99853516 259.44775391 C-4.56950615 262.86980935 -2.06666494 266.15276649 0.625 269.375 C2.62336662 272.0205649 3.43011496 273.92477394 3.625 277.25 C3 281 3 281 1.6015625 283.21875 C-2.46544051 286.00336467 -6.44916315 285.42482039 -11.25 285.25 C-12.18585938 285.23195313 -13.12171875 285.21390625 -14.0859375 285.1953125 C-16.39167015 285.14825673 -18.69530945 285.08253713 -21 285 C-21.15287476 286.01259888 -21.15287476 286.01259888 -21.30883789 287.0456543 C-22.77496838 296.3065701 -26.91738586 302.98606458 -32.765625 310.17578125 C-35.68876837 314.49574312 -35.25092893 319.72580097 -35.3125 324.75 C-35.34150391 325.5234375 -35.37050781 326.296875 -35.40039062 327.09375 C-35.48504512 334.85591579 -32.49123651 340.1995498 -28 346.375 C-22.97360304 353.88908073 -20.65283694 360.3423366 -20.5 369.375 C-20.48146973 370.06537354 -20.46293945 370.75574707 -20.44384766 371.46704102 C-20.48568956 374.81726469 -20.7912324 376.71340237 -22.78125 379.4453125 C-25.12210238 381.08555765 -26.18222726 381.5440277 -29 381.5 C-29.99 381.51546875 -29.99 381.51546875 -31 381.53125 C-34.01602937 380.7301172 -35.1318633 379.48952119 -37 377 C-37.58852366 374.42485012 -37.9989582 372.04179164 -38.3125 369.4375 C-39.33267092 362.73590175 -41.24052154 358.12321869 -45.21875 352.53515625 C-54.0558884 339.95773778 -54.95767034 325.52115452 -52.421875 310.59765625 C-50.17320965 303.80055417 -45.91909778 297.85664443 -41.92578125 291.96875 C-39.89967876 289.11734693 -39.89967876 289.11734693 -39 286 C-40.25296875 285.97421875 -41.5059375 285.9484375 -42.796875 285.921875 C-44.44795123 285.86558831 -46.09899155 285.8082411 -47.75 285.75 C-48.575 285.73582031 -49.4 285.72164063 -50.25 285.70703125 C-53.93974412 285.55825125 -56.37377242 285.37573655 -59.578125 283.453125 C-61.67021777 279.84369023 -62.04724409 276.96752524 -61 273 C-58.87909066 269.24733859 -56.27091805 265.96939291 -53.5625 262.625 C-52.16725154 260.84691673 -50.77268515 259.06829795 -49.37890625 257.2890625 C-48.7557251 256.51256348 -48.13254395 255.73606445 -47.49047852 254.93603516 C-45.95477075 253.06892347 -45.95477075 253.06892347 -45 251 C-45.886875 250.938125 -46.77375 250.87625 -47.6875 250.8125 C-62.55220654 248.62033116 -74.82665796 239.41104256 -86 230 C-86.76183594 229.37351563 -87.52367187 228.74703125 -88.30859375 228.1015625 C-94.32284228 222.99414174 -99.17373243 217.22358694 -104 211 C-104.78310547 210.01580078 -104.78310547 210.01580078 -105.58203125 209.01171875 C-107.11190664 207.04353195 -108.56417516 205.03794494 -110 203 C-110.65355469 202.07703125 -111.30710937 201.1540625 -111.98046875 200.203125 C-122.7493294 184.26902322 -130.77456986 166.48932081 -136 148 C-136.19674316 147.32904297 -136.39348633 146.65808594 -136.59619141 145.96679688 C-145.53603957 114.90703798 -143.03895744 82.52430471 -127.59033203 54.05004883 C-118.08223738 37.30600009 -104.49978203 22.95692115 -88 13 C-87.06510742 12.42789795 -87.06510742 12.42789795 -86.11132812 11.84423828 C-61.04555083 -3.21634396 -28.27328892 -8.3038078 0 0 Z M-83 50 C-83.61617187 50.53238281 -84.23234375 51.06476563 -84.8671875 51.61328125 C-98.0130395 63.82014382 -107.36555032 82.48942294 -108.28125 100.421875 C-108.32315158 101.96849812 -108.35444873 103.51544587 -108.375 105.0625 C-108.38901855 105.80153564 -108.40303711 106.54057129 -108.41748047 107.30200195 C-108.39228035 111.37491791 -108.39228035 111.37491791 -106.625 114.94140625 C-104.33880737 116.43072885 -102.73463112 116.86977947 -100 117 C-97.2140989 116.06196218 -97.2140989 116.06196218 -95 114 C-93.31590999 109.81693771 -92.62782244 105.83883188 -92.125 101.375 C-90.28629246 88.01278951 -85.66663136 75.66663136 -76 66 C-76 65.34 -76 64.68 -76 64 C-75.01 63.67 -74.02 63.34 -73 63 C-73 62.34 -73 61.68 -73 61 C-72.23042969 60.63648438 -72.23042969 60.63648438 -71.4453125 60.265625 C-68.16595789 58.56832325 -65.01621232 56.6865412 -61.875 54.75 C-61.24207031 54.38003906 -60.60914063 54.01007813 -59.95703125 53.62890625 C-56.79458377 51.66160877 -55.12972665 50.27601415 -53.53125 46.875 C-52.89692169 43.44216445 -53.1868107 41.96703704 -55 39 C-64.34491674 32.45855828 -76.26083508 44.09466396 -83 50 Z " fill="#030303" transform="translate(232,25)"/>
<path d="M0 0 C0.66 -0.0103125 1.32 -0.020625 2 -0.03125 C4.95390942 0.75338219 6.15220113 2.0982658 8 4.5 C9.49385203 11.52625577 8.11356744 17.87159575 4.640625 24.0390625 C2.20035555 27.69946667 -0.49632962 31.10466226 -3.328125 34.46875 C-6.3448135 38.13388556 -6.51397851 41.12228246 -6.48046875 45.7734375 C-5.60633576 50.73396455 -2.27439622 53.85196936 1 57.5 C7.73563495 66.17256625 9.03554087 73.66678512 8.28564453 84.42626953 C7.32846898 91.37520042 2.97592532 96.56867578 -1.6875 101.5 C-5.2627769 105.29481145 -6.25151858 108.92032827 -7.19921875 113.984375 C-8.19342851 117.1076486 -9.43532467 118.48522803 -12 120.5 C-14 121.03125 -14 121.03125 -16 121 C-16.66 121.0103125 -17.32 121.020625 -18 121.03125 C-20.95390942 120.24661781 -22.15220113 118.9017342 -24 116.5 C-25.75792187 108.23170541 -23.35580919 101.45609528 -19 94.5 C-18.34 93.51 -17.68 92.52 -17 91.5 C-16.34 91.5 -15.68 91.5 -15 91.5 C-14.731875 90.9225 -14.46375 90.345 -14.1875 89.75 C-13 87.5 -13 87.5 -11.4375 85.625 C-9.54810712 82.83198444 -9.19793968 80.86497452 -9 77.5 C-10.14622144 71.88746743 -12.0974238 68.76346442 -15.9375 64.5625 C-23.13649406 56.2609919 -24.71963094 50.42802713 -24.4765625 39.32421875 C-23.35068071 30.28947883 -18.64957032 23.97430383 -12.53125 17.57421875 C-10.15476749 14.35505494 -9.52778258 10.90036492 -8.80078125 7.015625 C-7.38561181 2.56992198 -4.7684428 -0.07450692 0 0 Z " fill="#121212" transform="translate(371,21.5)"/>
<path d="M0 0 C7.07544637 4.69689206 9.71070245 10.3585288 11.9375 18.375 C12.0627537 25.6397144 10.34915553 31.89909071 5.625 37.5 C0.0216854 43.26846492 -4.87236213 45.12768722 -12.8125 45.25 C-20.4765561 45.15698961 -25.82602794 42.88697076 -31.421875 37.70703125 C-37.01897155 31.65274612 -37.70120363 25.52971355 -37.44921875 17.4140625 C-36.61261205 11.05585157 -33.83200614 6.41444914 -29.125 2.125 C-20.19009475 -3.95073557 -9.75936544 -5.7408032 0 0 Z " fill="#0A0A0A" transform="translate(64,25)"/>
<path d="M0 0 C4.899679 2.09740645 7.62862092 5.2641154 10 10 C10.90955528 15.56344648 11.06815779 21.23156128 7.875 26.0625 C4.67862535 29.71295573 1.53039333 31.66484857 -3.359375 32.3125 C-9.4515701 32.60787916 -13.17434566 31.76401039 -18 28 C-21.72199833 23.22820727 -22.65795199 19.46441373 -22.3828125 13.4296875 C-21.57393742 8.29580687 -19.22337188 5.19278759 -15.5 1.5625 C-10.31376832 -0.752782 -5.5861433 -0.86862282 0 0 Z " fill="#0E0E0E" transform="translate(129,326)"/>
<path d="M0 0 C4.31701598 3.28093214 6.72546604 5.66495362 7.5390625 11.18359375 C7.81901369 17.08467007 7.45229692 21.29999146 3.70703125 25.97265625 C-1.2978008 30.40903824 -5.40669767 30.96547067 -11.92578125 30.7890625 C-16.30113057 30.17477505 -18.92965234 28.62177213 -21.875 25.375 C-25.44665321 20.42077135 -25.69845845 15.27957135 -24.875 9.375 C-23.52578448 5.14263942 -21.26227896 2.67707759 -17.75 -0.0625 C-12.12638297 -2.85017282 -5.5928168 -2.85641716 0 0 Z " fill="#111111" transform="translate(323.875,263.625)"/>
<path d="M0 0 C0.66 0.33 1.32 0.66 2 1 C1.27683594 1.65355469 1.27683594 1.65355469 0.5390625 2.3203125 C-3.32436286 5.96297069 -5.82400746 8.64270063 -7 14 C-7.75 12.4375 -7.75 12.4375 -8 10 C-5.92680809 5.62326152 -4.22261491 2.56373048 0 0 Z " fill="#6A6A6A" transform="translate(115,327)"/>
<path d="M0 0 C0.66 0.33 1.32 0.66 2 1 C0.88121617 2.17262904 -0.24523051 3.33795138 -1.375 4.5 C-2.00148438 5.1496875 -2.62796875 5.799375 -3.2734375 6.46875 C-5 8 -5 8 -7 8 C-5.50902342 4.2047869 -3.24299151 2.38957269 0 0 Z " fill="#575757" transform="translate(38,25)"/>
</svg>
