<?xml version="1.0" encoding="UTF-8"?>
<svg version="1.1" xmlns="http://www.w3.org/2000/svg" width="443" height="425">
<path d="M0 0 C1.60578918 -0.01007584 1.60578918 -0.01007584 3.24401855 -0.02035522 C6.78211106 -0.03934889 10.32001398 -0.04326021 13.8581543 -0.04541016 C16.32049131 -0.05183735 18.78282756 -0.05856565 21.24516296 -0.06558228 C26.40743785 -0.07755863 31.5696458 -0.08126274 36.73193359 -0.08007812 C43.33949123 -0.07987497 49.94661859 -0.10717241 56.55407429 -0.14162254 C61.64051781 -0.16388527 66.7268577 -0.16791584 71.81334496 -0.16685867 C74.24894887 -0.16921575 76.68455559 -0.17804519 79.12011147 -0.19352341 C82.53089953 -0.21316881 85.94075875 -0.20735003 89.3515625 -0.1953125 C90.35287704 -0.20655151 91.35419159 -0.21779053 92.385849 -0.22937012 C99.56150623 -0.16517721 104.78467002 1.38360597 110.39331055 5.93115234 C110.83932617 6.46224609 111.2853418 6.99333984 111.74487305 7.54052734 C112.43709961 8.32169922 112.43709961 8.32169922 113.14331055 9.11865234 C116.72378212 15.45859564 116.651883 22.49190645 116.59692383 29.56201172 C116.59721588 30.55804413 116.59750793 31.55407654 116.59780884 32.58029175 C116.5964237 35.84837785 116.58090095 39.11623143 116.56518555 42.38427734 C116.56145252 44.65970739 116.55860692 46.93513905 116.55661011 49.21057129 C116.54899649 55.18148281 116.52936752 61.15229608 116.50720215 67.12316895 C116.48669473 73.22321239 116.47759793 79.32327181 116.4675293 85.42333984 C116.44611948 97.37911203 116.41201101 109.3348115 116.36987305 121.29052734 C115.75426514 121.08194092 115.13865723 120.87335449 114.50439453 120.65844727 C113.2911853 120.25009644 113.2911853 120.25009644 112.0534668 119.83349609 C110.85161743 119.42780396 110.85161743 119.42780396 109.62548828 119.01391602 C99.48013067 115.76024196 88.90528564 116.61922404 79.30737305 121.04052734 C70.27112539 125.88579517 64.54226994 132.90679449 61.2253418 142.65380859 C58.84726359 152.76335569 59.59833461 163.01874195 64.36987305 172.29052734 C64.90999023 173.00853516 65.45010742 173.72654297 66.0065918 174.46630859 C67.36987305 176.29052734 67.36987305 176.29052734 67.36987305 178.29052734 C68.02987305 178.29052734 68.68987305 178.29052734 69.36987305 178.29052734 C70.7724762 179.72425842 70.7724762 179.72425842 72.41894531 181.72827148 C76.52784437 186.55748836 81.01205431 190.90087743 85.5847168 195.28662109 C87.34047151 196.99567828 89.09499337 198.70600275 90.84838867 200.41748047 C93.58525548 203.08635058 96.32784919 205.74759144 99.09179688 208.38842773 C101.77720216 210.95872044 104.43277993 213.55686752 107.0847168 216.16162109 C107.91583481 216.94315048 108.74695282 217.72467987 109.60325623 218.52989197 C113.24985886 222.1577018 115.87607755 224.81774582 116.20019531 230.11108398 C116.12864932 233.12846689 115.47511861 234.16222564 113.54072571 236.52038574 C108.72803677 239.20708923 104.23095418 238.83981076 98.8059082 238.79223633 C97.05140602 238.80034081 97.05140602 238.80034081 95.26145935 238.80860901 C91.39369425 238.82111913 87.52667025 238.80458687 83.65893555 238.78662109 C80.96999723 238.78486674 78.28106943 238.78821066 75.59213257 238.79103088 C69.95480708 238.79373138 64.31769469 238.78027398 58.68041992 238.75708008 C52.17461741 238.73049698 45.66917171 238.72871554 39.16333354 238.74046844 C32.89329085 238.75127249 26.62337649 238.74503697 20.35334396 238.73091316 C17.69077818 238.72517336 15.02846173 238.72606051 12.3658638 238.72997856 C8.64123384 238.73289319 4.91718362 238.71636934 1.19262695 238.69458008 C-0.45499886 238.70133255 -0.45499886 238.70133255 -2.13591003 238.70822144 C-9.54765 238.63628623 -14.60952527 237.8992288 -20.38012695 232.91552734 C-26.11974871 226.21930196 -26.78033276 220.704501 -26.77056885 212.08111572 C-26.77353997 211.25831611 -26.77651109 210.43551651 -26.77957225 209.58778358 C-26.78823865 206.83276335 -26.78976575 204.07778668 -26.79125977 201.32275391 C-26.79588939 199.34649564 -26.80091424 197.37023827 -26.80630493 195.39398193 C-26.81941683 190.02607665 -26.82587151 184.65818387 -26.83031559 179.29026508 C-26.8332482 175.93544917 -26.83735336 172.58063665 -26.84181976 169.22582245 C-26.85549135 158.72597019 -26.86515973 148.22612573 -26.86902165 137.72626519 C-26.87350206 125.61198757 -26.8910506 113.4978228 -26.92002225 101.38357949 C-26.94164809 92.01526034 -26.95172642 82.64697291 -26.95306277 73.27862906 C-26.95411013 67.68532455 -26.96000326 62.09212617 -26.97788239 56.49884796 C-26.99437864 51.23588267 -26.99651095 45.97310311 -26.98774338 40.71012115 C-26.98697385 38.78204856 -26.99130461 36.85396592 -27.00120163 34.92591858 C-27.01395286 32.28635071 -27.00802723 29.6474376 -26.99761963 27.00787354 C-27.00567603 26.25152815 -27.01373244 25.49518277 -27.02203298 24.71591783 C-26.96377156 18.3637545 -25.79786084 12.00699721 -21.76293945 6.95068359 C-21.10036133 6.42345703 -20.4377832 5.89623047 -19.75512695 5.35302734 C-19.09770508 4.80775391 -18.4402832 4.26248047 -17.76293945 3.70068359 C-11.98345726 -0.12054914 -6.73402735 -0.00605878 0 0 Z " fill="#040404" transform="translate(204.630126953125,58.70947265625)"/>
<path d="M0 0 C3.54599064 1.51343061 5.8422686 3.58355039 8.56567383 6.29101562 C9.91276176 7.62380554 9.91276176 7.62380554 11.2870636 8.98352051 C12.26071574 9.95743428 13.23402968 10.93168626 14.20703125 11.90625 C15.21565839 12.91098537 16.22450706 13.91549838 17.23356628 14.9197998 C19.34932151 17.02809604 21.46116382 19.14022164 23.57055664 21.25488281 C26.25162358 23.94170767 28.94379802 26.61707583 31.63936329 29.28934479 C33.72868534 31.36379762 35.8108929 33.44528373 37.89124107 35.5287323 C38.87949552 36.51647893 39.87006588 37.50191486 40.8631382 38.4848175 C55.80754161 53.29501065 65.25488634 68.65691276 65.41769409 90.08612061 C65.413458 91.49279882 65.40890034 92.8994761 65.40405273 94.30615234 C65.40976698 95.81688946 65.41673529 97.32762226 65.42485046 98.83834839 C65.44266934 102.90821407 65.44163634 106.97786287 65.43590808 111.04775572 C65.43280338 114.45275168 65.43892203 117.85770675 65.44494683 121.26269686 C65.45894994 129.29219111 65.45746271 137.32157882 65.44604492 145.35107422 C65.43453505 153.62819657 65.44869686 161.90499599 65.4754414 170.18207586 C65.49758763 177.30335911 65.50423918 184.42454087 65.49836498 191.54585612 C65.49499557 195.79311479 65.49741086 200.04016587 65.51461601 204.28739548 C65.53006875 208.27505243 65.52614871 212.26222864 65.50731087 216.24986649 C65.503622 217.7119767 65.50674221 219.17412246 65.51719666 220.63619995 C65.53038382 222.63286762 65.51646502 224.62965935 65.50120544 226.62631226 C65.50089152 228.30144174 65.50089152 228.30144174 65.50057125 230.01041222 C64.88596497 233.68105737 63.54303842 235.33548081 61 238 C57.58909738 240.41342036 54.39282618 240.25893404 50.29125977 240.2746582 C49.62571075 240.27976913 48.96016174 240.28488007 48.27444458 240.29014587 C46.08000634 240.30401663 43.88588305 240.30308707 41.69140625 240.30078125 C40.16210311 240.30466956 38.63280104 240.30900451 37.10350037 240.31376648 C33.89993792 240.32122325 30.69648569 240.32094137 27.49291992 240.31567383 C23.39272338 240.30987972 19.29297864 240.32681105 15.19285679 240.3500185 C12.03494134 240.36476833 8.87713439 240.36562586 5.7191906 240.36250877 C4.20775393 240.36302135 2.6963111 240.36824727 1.18490791 240.37832069 C-0.93097964 240.39069259 -3.04599113 240.38388996 -5.16186523 240.37231445 C-6.36447495 240.37294388 -7.56708466 240.3735733 -8.80613708 240.3742218 C-13.21360715 239.85780283 -15.8479785 238.316596 -18.75 235 C-20.86986157 231.60822149 -21.13583397 228.78463408 -21.2109375 224.87890625 C-21.8463571 200.08964859 -27.97489583 182.9399691 -44.44824219 164.3671875 C-48 160.30803571 -48 160.30803571 -48 157 C-46.92685547 156.97812622 -46.92685547 156.97812622 -45.83203125 156.95581055 C-42.55417564 156.88080787 -39.27728083 156.78432045 -36 156.6875 C-34.87464844 156.66494141 -33.74929688 156.64238281 -32.58984375 156.61914062 C-22.27348164 156.28732781 -15.64450747 154.3628751 -7.984375 147.19140625 C-2.13604542 140.7329163 -0.65008437 133.51991261 -0.70703125 125.0234375 C-1.33204489 118.57329673 -4.05855538 112.71064248 -7 107 C-7.66 107 -8.32 107 -9 107 C-10.3046875 105.671875 -10.3046875 105.671875 -11.875 103.75 C-15.13636528 99.91309966 -18.56832128 96.30995677 -22.125 92.75 C-22.62757324 92.24307617 -23.13014648 91.73615234 -23.64794922 91.21386719 C-25.89749625 88.97245729 -28.16516832 86.8682064 -30.6484375 84.88671875 C-32.89347081 83.0854711 -34.65371126 81.26149956 -36.5 79.0625 C-39.21006983 75.89488591 -42.01102697 72.91031584 -45 70 C-56.7305483 58.57023499 -56.7305483 58.57023499 -57.25 51.6875 C-56.87249172 46.11925281 -54.87439381 42.59494794 -51.0625 38.625 C-47.01838661 35.38628207 -43.20282721 35.28456787 -38.16015625 35.203125 C-29.66507528 37.3452715 -23.4210018 45.44085228 -17.6015625 51.5546875 C-15.80590256 53.40482589 -14.00898953 55.25374877 -12.2109375 57.1015625 C-9.40543498 59.99372147 -6.60614071 62.89024375 -3.83203125 65.8125 C-1.13696958 68.64961149 1.59857561 71.44585012 4.3359375 74.2421875 C5.15605316 75.12019012 5.97616882 75.99819275 6.82113647 76.90280151 C10.85765254 80.97596247 13.53322603 83.52901057 19.43994141 83.63330078 C22.40395944 83.40263059 23.95838964 83.0217959 26.625 81.625 C28.86212572 77.35412363 28.92947556 73.68929946 28 69 C24.91851038 64.01458116 20.3935141 60.45690729 15.72265625 57.03125 C7.95589005 51.02029565 0.57116023 45.23197228 -0.96386719 35.11474609 C-2.08888494 23.4528868 -1.16054132 11.62666857 0 0 Z " fill="#050505" transform="translate(342,161)"/>
<path d="M0 0 C3.57623788 1.9137306 5.69762236 4.09286708 7 8 C7.38246677 13.16330136 6.89631839 15.75942622 4 20 C2.6566143 21.50793696 1.27893134 22.98576455 -0.125 24.4375 C-20.25554165 46.56148814 -28.35399001 75.57779701 -27 105 C-24.7882784 129.58026956 -15.1290143 151.692711 1.36328125 169.94140625 C4.59754584 173.58901348 6.84440719 176.54780047 7.375 181.5 C6.88148092 186.1061781 5.41283302 188.42414779 2.375 191.8125 C-1.44604762 193.72302381 -4.83730617 193.94794018 -9 193 C-12.13678959 191.09014656 -14.50972921 188.68025022 -17 186 C-17.57363281 185.40960938 -18.14726563 184.81921875 -18.73828125 184.2109375 C-30.59543697 171.39975776 -39.24204576 155.95206389 -44.8125 139.5 C-45.22943115 138.27410156 -45.22943115 138.27410156 -45.65478516 137.0234375 C-49.9477835 123.68718459 -51.58326144 110.84978163 -51.5 96.9375 C-51.49890228 96.17708405 -51.49780457 95.41666809 -51.49667358 94.63320923 C-51.44276821 81.56090026 -49.94365773 69.51670501 -46 57 C-45.80776855 56.34386719 -45.61553711 55.68773437 -45.41748047 55.01171875 C-39.54382553 35.06543745 -27.01040499 14.44705931 -11 1 C-7.51302098 -0.74348951 -3.80409937 -0.58082725 0 0 Z " fill="#0B0B0B" transform="translate(74,90)"/>
<path d="M0 0 C3.05669618 1.75216476 5.39833374 3.79666748 7 7 C7.81684821 11.08424107 8.25416425 13.96221196 5.99658203 17.63037109 C4.18235657 20.08712026 2.24340986 22.42333681 0.28222656 24.76342773 C-10.21553609 37.30279852 -13.84170651 51.85252515 -13 68 C-11.37590905 83.98569518 -4.29545095 95.18797982 5.7734375 107.09765625 C7.98293705 110.52449154 7.74456326 114.08765852 7 118 C5.28095248 121.06881816 3.19285833 123.40357084 0 125 C-3.97911573 125.72647756 -7.49913408 125.84441242 -11.08984375 123.82421875 C-24.79814818 112.45039785 -34.95749803 92.62012551 -37 75 C-38.93717425 49.46648666 -33.84574441 26.8456715 -17 7 C-12.09094358 1.43705336 -7.66163412 -2.06383502 0 0 Z " fill="#0C0C0C" transform="translate(108,124)"/>
<path d="M0 0 C3.06881816 1.71904752 5.40357084 3.80714167 7 7 C7.54207301 10.80225499 7.86086901 14.48648661 5.91796875 17.90234375 C5.01674066 19.04770855 4.10788635 20.18711489 3.19140625 21.3203125 C1.17778087 24.15919418 1 26.57952461 1 30 C2.17275708 33.45963338 3.23471055 36.14967839 5.6875 38.875 C7.86108074 42.39413072 7.76176607 45.99726554 7 50 C5.28095248 53.06881816 3.19285833 55.40357084 0 57 C-3.8560266 57.62041976 -7.44212852 57.80824223 -10.97265625 55.9765625 C-17.30128854 50.94147483 -20.85557907 43.67079206 -23 36 C-24.19106305 23.53538665 -22.14375054 14.55939268 -14.5625 4.69140625 C-10.155919 -0.07871769 -6.37092949 -1.21246063 0 0 Z " fill="#0E0E0E" transform="translate(142,158)"/>
<path d="M0 0 C8.25 0 16.5 0 25 0 C21.53504588 1.73247706 20.36025469 2.2564031 16.77734375 2.4140625 C15.99166016 2.45273437 15.20597656 2.49140625 14.39648438 2.53125 C13.58501953 2.5621875 12.77355469 2.593125 11.9375 2.625 C11.12216797 2.66367187 10.30683594 2.70234375 9.46679688 2.7421875 C6.30682974 2.88759273 3.16377205 3 0 3 C0 2.01 0 1.02 0 0 Z " fill="#7D7D7D" transform="translate(294,318)"/>
<path d="M0 0 C-1.58667578 3.90285767 -4.13350481 6.33520982 -7.125 9.25 C-8.03507812 10.14203125 -8.94515625 11.0340625 -9.8828125 11.953125 C-10.58148438 12.62859375 -11.28015625 13.3040625 -12 14 C-12.66 13.67 -13.32 13.34 -14 13 C-12.56354149 11.39490066 -11.12579294 9.79095576 -9.6875 8.1875 C-8.88699219 7.29417969 -8.08648437 6.40085937 -7.26171875 5.48046875 C-2.26456693 0 -2.26456693 0 0 0 Z " fill="#434343" transform="translate(65,91)"/>
<path d="M0 0 C-1.38188453 3.21043882 -2.92421903 5.04936365 -5.625 7.25 C-6.57246094 8.03117188 -6.57246094 8.03117188 -7.5390625 8.828125 C-8.02117187 9.21484375 -8.50328125 9.6015625 -9 10 C-7.6834994 5.81113445 -4.97532335 0 0 0 Z " fill="#4D4D4D" transform="translate(133,159)"/>
</svg>
